Coordinates
version=1
nRows=8
nColumns=36
inDegrees=yes

Units are S.I. units (second, meters, Newtons, ...)
If the header above contains a line with 'inDegrees', this indicates whether rotational values are in degrees (yes) or radians (no).

endheader
time	pelvis_tilt	pelvis_list	pelvis_rotation	pelvis_tx	pelvis_ty	pelvis_tz	hip_flexion_r	hip_adduction_r	hip_rotation_r	knee_angle_r	knee_angle_r_beta	ankle_angle_r	subtalar_angle_r	mtp_angle_r	hip_flexion_l	hip_adduction_l	hip_rotation_l	knee_angle_l	knee_angle_l_beta	ankle_angle_l	subtalar_angle_l	mtp_angle_l	lumbar_extension	lumbar_bending	lumbar_rotation	arm_flex_r	arm_add_r	arm_rot_r	elbow_flex_r	pro_sup_r	arm_flex_l	arm_add_l	arm_rot_l	elbow_flex_l	pro_sup_l
      3.10000000	     -3.14356137	      1.65707919	     -4.40263851	     -0.05018718	      0.96879918	      0.05575032	     13.47741646	     -3.99541418	     -0.50079588	     21.56024102	      0.37629719	     10.51134669	     -6.20596593	     -7.49999987	      7.17892427	      0.74110178	      3.18640250	     11.09575921	      0.19365753	      9.82132068	      0.07568418	     -7.49999987	      1.35270792	     -2.81755473	     -3.77146224	     33.46565279	     15.30977029	     49.91403057	    119.51357744	     97.78664612	     48.03404825	     12.52848353	     66.85404725	    117.67254420	     77.04946770
      3.11666670	     -3.15482437	      1.58218386	     -4.55936795	     -0.04949186	      0.96919627	      0.05752988	     13.08706068	     -3.78194799	     -0.63431077	     21.07298754	      0.36779302	     10.47445433	     -6.09466240	     -7.49999987	      6.98604094	      0.53701708	      2.97053253	     11.06895600	      0.19318973	      9.82991140	      0.09403108	     -7.49999987	      1.49935461	     -2.86117000	     -3.55822416	     33.40180921	     15.39325742	     49.83632964	    120.44470940	     97.57018160	     48.36079397	     12.55512380	     66.88084603	    117.67084230	     76.82594303
      3.13333330	     -3.11427044	      1.55674665	     -4.86876997	     -0.04683436	      0.97066081	      0.06069432	     12.61517933	     -3.56797408	     -0.65443539	     20.67596831	      0.36086372	     10.72720916	     -5.80801560	     -7.49999987	      6.68378120	      0.34494555	      2.67622714	     10.93182733	      0.19079638	      9.90754168	      0.28209551	     -7.49999987	      1.60311889	     -2.99221722	     -2.93475306	     33.45562357	     14.49331503	     47.34317541	    119.88670218	     97.22161947	     48.85654108	     12.83545143	     66.93364306	    117.26117777	     76.13183771
      3.15000000	     -3.44555989	      1.54741341	     -5.06472341	     -0.04553004	      0.96882424	      0.06303424	     12.56228429	     -3.37635318	     -0.82556318	     20.13871852	      0.35148695	     10.62087938	     -5.78202989	     -7.49999987	      6.77892744	      0.14040872	      2.56080365	     10.84372003	      0.18925862	     10.01011794	      0.32219340	     -7.49999987	      2.35127446	     -2.97876325	     -2.75040290	     33.17091970	     14.66199568	     47.55574804	    120.25068299	     96.61548721	     48.26986639	     12.68205857	     67.00929366	    117.32643534	     75.78363974
      3.16666670	     -3.43695540	      1.50027458	     -5.24672749	     -0.04503339	      0.97308829	      0.06591921	     11.94685022	     -3.13713304	     -0.92162412	     19.24837415	      0.33594750	     10.34362189	     -5.73682677	     -7.49999987	      6.60602826	     -0.08798209	      2.48026939	     10.72194399	      0.18713322	     10.09902282	      0.50896729	     -7.49999987	      2.37806691	     -2.87231807	     -2.36705095	     33.29852246	     14.63403477	     47.92315904	    120.22529669	     98.42359242	     48.41286864	     12.48762115	     67.03040990	    117.49188685	     76.48126824
      3.18333330	     -3.61547833	      1.52862691	     -5.27846567	     -0.04101749	      0.97157332	      0.06968204	     11.50531422	     -2.93256739	     -1.10386181	     18.31753321	      0.31970127	     10.13257690	     -5.75008634	     -7.49999987	      6.55750168	     -0.25670208	      2.44196495	     10.43550440	      0.18213391	     10.18112901	      0.48265007	     -7.49999987	      2.78848476	     -2.88169103	     -2.04823488	     33.10234660	     14.90821730	     48.91810061	    120.77753622	     98.41603532	     48.03552134	     12.25472496	     67.15872949	    117.91845280	     75.91109192
      3.20000000	     -3.73538845	      1.53053598	     -5.17049667	     -0.03890593	      0.97196808	      0.07273662	     10.96806148	     -2.76586135	     -1.45463129	     17.46586936	      0.30483693	      9.83887710	     -5.58545147	     -7.49999987	      6.52422561	     -0.42421947	      2.55900359	     10.35761922	      0.18077456	     10.03386949	      0.45593738	     -7.49999987	      3.04893598	     -2.79311500	     -1.72705306	     32.88711910	     14.73049495	     48.98407178	    120.30487901	     98.03748018	     47.66474235	     12.25373275	     67.32802321	    118.23082906	     75.36515328
      3.21666670	     -3.62110297	      1.44013170	     -4.91454009	     -0.03638731	      0.97015069	      0.07636111	     10.22473700	     -2.48784119	     -1.81702247	     16.71190087	      0.29167769	      9.69248963	     -5.45007834	     -7.49999987	      6.20597504	     -0.70439800	      2.64137966	     10.37700540	      0.18111291	     10.04008599	      0.48645772	     -7.49999987	      2.97077038	     -2.65446330	     -1.43110234	     32.72870542	     14.54515426	     48.70421452	    120.03326775	     97.64612116	     47.36037264	     12.21507146	     67.45143603	    118.48610336	     75.08218015
